{
	"bufferViews":[{
		"buffer":0,
		"byteOffset":0,
		"target":34963,
		"byteLength":144
	},
	{
		"buffer":0,
		"byteOffset":144,
		"target":34962,
		"byteLength":192
	}],
	"scenes":[{
		"nodes":[0]
	}],
	"asset":{
		"version":"2.0",
		"generator":"Created using the official Cinema 4D glTF Exporter 1.000x284978"
	},
	"nodes":[{
		"name":"Cube",
		"translation":[0.0,
		1.75,
		0.0],
		"rotation":[0.0,
		0.0,
		0.0,
		-1.0],
		"scale":[1.0,
		1.0,
		1.0],
		"mesh":0
	}],
	"meshes":[{
		"name":"Cube",
		"primitives":[{
			"attributes":{
				"POSITION":1
			},
			"indices":0
		}]
	}],
	"accessors":[{
		"bufferView":0,
		"componentType":5123,
		"type":"SCALAR",
		"count":72,
		"byteOffset":0,
		"min":[0],
		"max":[15]
	},
	{
		"bufferView":1,
		"componentType":5126,
		"type":"VEC3",
		"count":16,
		"byteOffset":0,
		"min":[-1.5,
		-1.75,
		-0.75],
		"max":[1.5,
		1.75,
		0.75]
	}],
	"buffers":[{
		"uri":"data:application/octet-stream;base64,",
		"byteLength":336
	}]
}